<?xml version="1.0" encoding="utf-8"?>
<!-- Generator: Adobe Illustrator 21.0.2, SVG Export Plug-In . SVG Version: 6.00 Build 0)  -->
<svg version="1.1" id="Layer_1" xmlns="http://www.w3.org/2000/svg" xmlns:xlink="http://www.w3.org/1999/xlink" x="0px" y="0px"
	 viewBox="0 0 240 200" enable-background="new 0 0 240 200" xml:space="preserve">
<g id="Artwork_5">
	<g>
		<g>
			<path fill="#FFFFFF" d="M12.9,198.017c-5.468,0-9.917-4.449-9.917-9.917V33.403c0-5.468,4.449-9.917,9.917-9.917h214.2
				c5.468,0,9.917,4.449,9.917,9.917V188.1c0,5.468-4.449,9.917-9.917,9.917H12.9z"/>
			<path d="M227.1,25.47c4.374,0,7.933,3.559,7.933,7.933V188.1c0,4.375-3.559,7.933-7.933,7.933H12.9
				c-4.374,0-7.933-3.558-7.933-7.933V33.403c0-4.374,3.559-7.933,7.933-7.933H227.1 M227.1,21.503H12.9
				c-6.572,0-11.9,5.328-11.9,11.9V188.1c0,6.573,5.328,11.9,11.9,11.9h214.2c6.572,0,11.9-5.327,11.9-11.9V33.403
				C239,26.831,233.672,21.503,227.1,21.503"/>
			
				<line fill="none" stroke="#000000" stroke-width="4" stroke-linecap="round" stroke-miterlimit="10" x1="2.983" y1="51.25" x2="235.038" y2="51.25"/>
			<path fill="#FFFFFF" d="M237.017,43.317h-142.8c-1.096,0-1.983-0.888-1.983-1.983v-5.95c0-2.191-1.776-3.967-3.967-3.967H42.65
				c-2.191,0-3.967,1.776-3.967,3.967v5.95c0,1.096-0.888,1.983-1.983,1.983H2.983"/>
			<path fill="none" stroke="#000000" stroke-width="4" stroke-linecap="round" stroke-miterlimit="10" d="M237.017,43.317h-142.8
				c-1.096,0-1.983-0.888-1.983-1.983v-5.95c0-2.191-1.776-3.967-3.967-3.967H42.65c-2.191,0-3.967,1.776-3.967,3.967v5.95
				c0,1.096-0.888,1.983-1.983,1.983H2.983"/>
			<path fill="#FFCD00" d="M185.45,164.301H54.55c-1.096,0-1.983-0.888-1.983-1.983V86.951c0-1.096,0.888-1.983,1.983-1.983h130.9
				c1.096,0,1.983,0.888,1.983,1.983v75.367C187.433,163.413,186.546,164.301,185.45,164.301"/>
			<path fill="none" stroke="#000000" stroke-width="4" stroke-linecap="round" stroke-linejoin="round" stroke-miterlimit="10" d="
				M185.45,164.301H54.55c-1.096,0-1.983-0.888-1.983-1.983V86.951c0-1.096,0.888-1.983,1.983-1.983h130.9
				c1.096,0,1.983,0.888,1.983,1.983v75.367C187.433,163.413,186.546,164.301,185.45,164.301z"/>
			
				<line fill="none" stroke="#000000" stroke-width="4" stroke-linecap="round" stroke-miterlimit="10" x1="52.567" y1="152.401" x2="187.433" y2="152.401"/>
			<polygon fill="#FFFFFF" points="110.083,130.584 129.917,118.684 110.083,106.784 			"/>
			
				<polygon fill="none" stroke="#000000" stroke-width="4" stroke-linecap="round" stroke-linejoin="round" stroke-miterlimit="10" points="
				110.083,130.584 129.917,118.684 110.083,106.784 			"/>
			<rect x="52.567" y="152.403" fill="#FFFFFF" width="134.867" height="11.9"/>
			
				<rect x="52.567" y="152.403" fill="none" stroke="#000000" stroke-width="4" stroke-linecap="round" stroke-linejoin="round" stroke-miterlimit="10" width="134.867" height="11.9"/>
			<path d="M70.417,158.351c0,1.096-0.888,1.983-1.983,1.983c-1.096,0-1.983-0.888-1.983-1.983s0.888-1.983,1.983-1.983
				C69.529,156.367,70.417,157.255,70.417,158.351"/>
			<path d="M62.483,158.351c0,1.096-0.888,1.983-1.983,1.983c-1.096,0-1.983-0.888-1.983-1.983s0.888-1.983,1.983-1.983
				C61.596,156.367,62.483,157.255,62.483,158.351"/>
		</g>
	</g>
</g>
</svg>
