<svg viewBox="0 0 228 200" xmlns="http://www.w3.org/2000/svg"><title>bower-logo</title><g fill-rule="nonzero" fill="none"><path d="M222.943 97.595c-11.69-11.233-70.147-18.245-88.592-20.286a54.131 54.131 0 0 0 2.282-6.54 73.817 73.817 0 0 1 8.035-2.981c.342 1.009 1.953 4.874 2.871 6.708 37.09 1.023 38.995-27.563 40.503-35.394 1.475-7.658 1.4-15.057 14.123-28.583-18.954-5.523-46.211 8.56-55.34 29.523-3.432-1.285-6.87-2.235-10.271-2.822C134.116 27.39 121.426 0 88.122 0 45.957 0 0 34.786 0 93.671c0 49.499 33.795 92.878 52.888 92.878 8.339 0 15.512-6.244 17.196-11.841 1.412 3.837 5.744 15.769 7.166 18.806 2.103 4.491 11.827 8.378 16.083 3.717 5.471 3.04 15.511 4.87 20.983-3.236 10.539 2.23 19.855-4.055 20.058-11.553 5.171-.276 7.708-7.537 6.579-13.32-.833-4.256-9.724-19.531-13.193-24.804 6.866 5.585 24.257 7.166 26.37.003 11.069 8.69 28.32 4.129 29.688-2.938 13.45 3.495 28.878-4.18 26.345-13.477 21.608-1.494 18.843-24.485 12.78-30.31z" fill="#543729"/><path d="M162.777 48.563c4.654-9.234 10.503-19.317 17.89-25.555-8.13 3.277-16.158 13.072-20.904 23.541a73.213 73.213 0 0 0-7.352-4.108c6.62-14.132 22.005-25.934 38.959-26.856-11.356 10.299-7.325 31.704-16.662 43.036-2.672-2.683-8.806-7.862-11.93-10.058zm-7.34 15.036c.005-.353.137-3.08.385-4.323-.651-.154-4.698-.945-6.808-.896-.154 2.65 1.113 7.16 2.366 9.873 8.626-.18 14.857-2.764 18.525-5.139-3.123-1.456-8.45-2.75-12.502-3.523-.452.935-1.564 3.318-1.966 4.008z" fill="#00ACEE"/><path d="M123.382 136.654l.01.04c-1.094-2.352-2.255-5.21-3.642-8.946 5.4 7.86 22.322 3.806 21.435-3.236 8.283 6.232 25.333-1.039 21.457-9.778 8.297 3.866 17.767-3.913 15.644-7.303 14.145 2.729 27.702 5.448 31.957 6.537-2.827 4.61-9.265 7.864-18.97 5.603 5.244 7.143-4.938 15.714-19.12 10.994 3.122 7.013-9.505 13.327-23.856 6.017.182 7.016-17.804 7.824-24.915.072zm28.062-35.463c16.418 1.26 43.569 3.708 60.378 6.06-1.062-5.47-3.963-7.032-13.088-9.483-9.814 1.046-34.711 3.492-47.29 3.423z" fill="#2BAF2B"/><path d="M141.185 124.512c8.283 6.232 25.333-1.039 21.457-9.778 8.297 3.866 17.767-3.913 15.644-7.303-16.725-3.224-34.274-6.46-38.255-7.026 2.415.128 6.417.402 11.413.786 12.58.07 37.477-2.376 47.29-3.423-15.89-4.029-48.332-9.909-70.737-11.357-1.038 1.517-2.947 4.09-6.271 6.825-9.803 20.74-27.563 34.527-47.214 34.527-5.727 0-12.135-.966-19.316-3.262-4.479 4.798-23.574 8.434-39.068.83 12.29 28.777 40.79 47.986 72.34 47.986 26.57 0 38.351-27.132 35.773-34.31-.626-1.744-3.105-7.523-4.492-11.258 5.4 7.859 22.323 3.805 21.436-3.237z" fill="#FFCC2F"/><path d="M125.083 69.906c2.346-1.277 10.453-6.19 18.178-8.037a34.271 34.271 0 0 1-.27-2.586c-5.07 1.213-14.624 5.309-20.1-.335 11.552 3.486 17.32-3.106 25.811-3.106 5.06 0 12.28 1.413 17.97 3.647-4.577-4.228-19.587-16.99-38.172-17.034-4.15 5.03-8.635 15.927-3.417 27.45z" fill="#CECECE"/><path d="M55.196 124.501c7.181 2.296 13.589 3.262 19.316 3.262 19.65 0 37.41-13.787 47.214-34.527-7.25 6.052-19.85 11.23-39.529 11.23 17.528-3.974 32.617-12.708 40.292-25.476-5.395-8.588-11.247-27.586 3.572-42.605-2.28-7.324-13.375-26.658-37.939-26.658-42.867 0-78.394 35.871-78.394 83.944 0 11.38 2.297 22.052 6.4 31.659 15.494 7.605 34.589 3.97 39.068-.829z" fill="#EF5734"/><path d="M68.057 51.306c0 10.934 8.864 19.8 19.8 19.8 10.935 0 19.8-8.866 19.8-19.8 0-10.935-8.865-19.8-19.8-19.8-10.936 0-19.8 8.865-19.8 19.8z" fill="#FFCC2F"/><path d="M76.002 51.306c0 6.546 5.308 11.854 11.854 11.854 6.547 0 11.855-5.308 11.855-11.854 0-6.547-5.307-11.855-11.855-11.855-6.546 0-11.854 5.308-11.854 11.855z" fill="#543729"/><ellipse fill="#FFF" cx="87.856" cy="46.046" rx="6.908" ry="4.295"/></g></svg>