<?xml version="1.0" encoding="UTF-8"?>
<svg width="228px" height="200px" viewBox="0 0 228 200" version="1.1" xmlns="http://www.w3.org/2000/svg" xmlns:xlink="http://www.w3.org/1999/xlink">
    <!-- Generator: Sketch 45.2 (43514) - http://www.bohemiancoding.com/sketch -->
    <title>bower-logo</title>
    <desc>Created with Sketch.</desc>
    <defs></defs>
    <g id="Page-1" stroke="none" stroke-width="1" fill="none" fill-rule="evenodd">
        <g id="bower-logo" fill-rule="nonzero">
            <path d="M222.942998,97.595086 C211.25258,86.3621622 152.796069,79.3498771 134.35086,77.3085995 C135.244226,75.1985258 136.004914,73.0162162 136.632924,70.7690418 C139.14742,69.6678133 141.861916,68.6432432 144.668305,67.787715 C145.010319,68.7965602 146.62113,72.6619165 147.539066,74.4963145 C184.629484,75.5194103 186.533661,46.9331695 188.04226,39.1017199 C189.517445,31.444226 189.44226,24.0452088 202.164619,10.5189189 C183.210811,4.9955774 155.953808,19.0796069 146.824079,40.0422604 C143.39312,38.7567568 139.954791,37.807371 136.553808,37.2201474 C134.116462,27.3891892 121.425553,0 88.1223587,0 C45.9567568,0 0,34.7857494 0,93.6712531 C0,143.170025 33.7945946,186.549386 52.8884521,186.549386 C61.227027,186.549386 68.4,180.30516 70.0840295,174.707617 C71.4958231,178.545455 75.8275184,190.476658 77.2501229,193.514005 C79.3528256,198.005405 89.0771499,201.891892 93.3326781,197.230958 C98.8044226,200.270762 108.844226,202.10172 114.316462,193.995086 C124.854545,196.224079 134.171007,189.940049 134.374447,182.441769 C139.545455,182.165602 142.082064,174.90516 140.952826,169.12285 C140.120393,164.865848 131.228501,149.590663 127.760197,144.317936 C134.626044,149.902703 152.017199,151.483538 154.129238,144.321376 C165.199017,153.010319 182.450123,148.449631 183.818182,141.383292 C197.268796,144.878133 212.696314,137.202457 210.163145,127.906143 C231.771499,126.411794 229.005897,103.42113 222.942998,97.595086 Z" id="outline" fill="#543729"></path>
            <g id="leaf" transform="translate(148.894349, 15.233415)" fill="#00ACEE">
                <path d="M13.8830467,33.3292383 C18.5371007,24.0953317 24.385258,14.0127764 31.7719902,7.77493857 C23.641769,11.0515971 15.614742,20.846683 10.8687961,31.3159705 C8.44963145,29.7783784 5.99361179,28.4068796 3.51695332,27.207371 C10.1375921,13.0756757 25.5213759,1.27371007 42.4751843,0.351842752 C31.1194103,10.6506143 35.1503686,32.0560197 25.8137592,43.387715 C23.1420147,40.7041769 17.007371,35.5253071 13.8830467,33.3292383 Z M6.54250614,48.365602 C6.54742015,48.012285 6.67960688,45.2864865 6.92776413,44.0422604 C6.27665848,43.8889435 2.22948403,43.0972973 0.119410319,43.1469287 C-0.0343980344,45.7970516 1.23292383,50.3056511 2.48550369,53.019656 C11.1120393,52.8388206 17.3429975,50.2555283 21.0103194,47.8805897 C17.8879607,46.4250614 12.5601966,45.1312039 8.50909091,44.3572482 C8.05700246,45.2923833 6.94447174,47.6751843 6.54250614,48.365602 Z" id="Shape"></path>
            </g>
            <path d="M123.38231,136.653563 C123.384275,136.665848 123.389681,136.682555 123.391155,136.69484 C122.297789,134.342015 121.136609,131.484029 119.749877,127.748403 C125.149386,135.607862 142.072236,131.5543 141.184767,124.511548 C149.467813,130.74398 166.517936,123.473219 162.641769,114.734152 C170.939066,118.600491 180.409337,110.82113 178.285504,107.43145 C192.43145,110.159705 205.987715,112.879115 210.243243,113.968059 C207.416216,118.577396 200.977887,121.832432 191.272727,119.570516 C196.516953,126.714496 186.335135,135.285012 172.153317,130.564619 C175.275184,137.577887 162.648157,143.891892 148.296806,136.581818 C148.479115,143.598034 130.492875,144.405897 123.38231,136.653563 Z M151.443735,101.190663 C167.861916,102.451106 195.012776,104.899263 211.821622,107.251597 C210.759705,101.781327 207.858968,100.218673 198.734152,97.7675676 C188.920393,98.8142506 164.022604,101.259951 151.443735,101.190663 Z" id="wingtip" fill="#2BAF2B"></path>
            <path d="M141.184767,124.511548 C149.467813,130.74398 166.517936,123.473219 162.641769,114.734152 C170.939066,118.600491 180.409337,110.82113 178.285504,107.43145 C161.561179,104.20688 144.011794,100.970516 140.030958,100.404914 C142.4457,100.53317 146.448157,100.807371 151.443735,101.191155 C164.023096,101.260442 188.920885,98.814742 198.734152,97.768059 C182.844226,93.7390663 150.401966,87.8594595 127.997052,86.4108108 C126.958722,87.9282555 125.050123,90.5017199 121.725799,93.2363636 C111.923342,113.976904 94.1626536,127.763145 74.5115479,127.763145 C68.7847666,127.763145 62.3773956,126.797052 55.1955774,124.501229 C50.7169533,129.299263 31.6216216,132.935135 16.1277641,125.330221 C28.4176904,154.107617 56.9189189,173.317445 88.4673219,173.317445 C115.037346,173.317445 126.819165,146.185258 124.240786,139.006388 C123.615233,137.263391 121.136118,131.484029 119.748894,127.748894 C125.149386,135.607862 142.071744,131.5543 141.184767,124.511548 Z" id="body" fill="#FFCC2F"></path>
            <path d="M125.082555,69.9056511 C127.428501,68.629484 135.535627,63.7154791 143.260934,61.8687961 C143.139066,61.0132678 143.047174,60.1503686 142.990172,59.2825553 C137.921867,60.4963145 128.366585,64.5916462 122.890909,58.9479115 C134.443243,62.4339066 140.211302,55.841769 148.702211,55.841769 C153.761671,55.841769 160.981327,57.2550369 166.672236,59.4894349 C162.09484,55.2609337 147.084521,42.4992629 128.499754,42.4550369 C124.350369,47.4855037 119.865356,58.3823096 125.082555,69.9056511 Z" id="beak" fill="#CECECE"></path>
            <path d="M55.1955774,124.501229 C62.3773956,126.797052 68.7847666,127.763145 74.5115479,127.763145 C94.1626536,127.763145 111.92285,113.976413 121.725799,93.2363636 C114.475676,99.2884521 101.875184,104.46683 82.1970516,104.46683 C99.7248157,100.492383 114.813759,91.7577396 122.489435,78.990172 C117.093857,70.402457 111.241769,51.4039312 126.061425,36.3847666 C123.781818,29.0609337 112.685995,9.72727273 88.1223587,9.72727273 C45.2545455,9.72727273 9.72776413,45.5980344 9.72776413,93.6707617 C9.72776413,105.050614 12.0250614,115.723342 16.1282555,125.32973 C31.6216216,132.935135 50.7169533,129.299263 55.1955774,124.501229 Z" id="head" fill="#EF5734"></path>
            <path d="M68.0570025,51.3056511 C68.0570025,62.2402948 76.9213759,71.1056511 87.8565111,71.1056511 C98.7916462,71.1056511 107.657002,62.2402948 107.657002,51.3056511 C107.657002,40.370516 98.7916462,31.5056511 87.8565111,31.5056511 C76.9213759,31.5056511 68.0570025,40.370516 68.0570025,51.3056511 Z" id="eye_rim" fill="#FFCC2F"></path>
            <path d="M76.0019656,51.3056511 C76.0019656,57.8520885 81.3100737,63.1597052 87.8560197,63.1597052 C94.4034398,63.1597052 99.7105651,57.8520885 99.7105651,51.3056511 C99.7105651,44.7587224 94.4039312,39.4511057 87.8560197,39.4511057 C81.3100737,39.4511057 76.0019656,44.7587224 76.0019656,51.3056511 Z" id="eye" fill="#543729"></path>
            <ellipse id="pupil_highlight" fill="#FFFFFF" cx="87.8560197" cy="46.0457002" rx="6.90761671" ry="4.29484029"></ellipse>
        </g>
    </g>
</svg>