<?xml version="1.0" encoding="UTF-8"?>
<svg viewBox="0 0 240 200" version="1.1" xmlns="http://www.w3.org/2000/svg" xmlns:xlink="http://www.w3.org/1999/xlink">
    <!-- Generator: Sketch 45.2 (43514) - http://www.bohemiancoding.com/sketch -->
    <title>npm</title>
    <desc>Created with Sketch.</desc>
    <defs></defs>
    <g id="Page-1" stroke="none" stroke-width="1" fill="none" fill-rule="evenodd">
        <g id="npm" transform="translate(0.000000, 53.000000)" fill-rule="nonzero">
            <path d="M0,0 L240,0 L240,80 L120,80 L120,93.3333333 L66.6666667,93.3333333 L66.6666667,80 L0,80 L0,0 Z M13.3333333,66.6666667 L40,66.6666667 L40,26.6666667 L53.3333333,26.6666667 L53.3333333,66.6666667 L66.6666667,66.6666667 L66.6666667,13.3333333 L13.3333333,13.3333333 L13.3333333,66.6666667 Z M80,13.3333333 L80,80 L106.666667,80 L106.666667,66.6666667 L133.333333,66.6666667 L133.333333,13.3333333 L80,13.3333333 Z M106.666667,26.6666667 L120,26.6666667 L120,53.3333333 L106.666667,53.3333333 L106.666667,26.6666667 Z M146.666667,13.3333333 L146.666667,66.6666667 L173.333333,66.6666667 L173.333333,26.6666667 L186.666667,26.6666667 L186.666667,66.6666667 L200,66.6666667 L200,26.6666667 L213.333333,26.6666667 L213.333333,66.6666667 L226.666667,66.6666667 L226.666667,13.3333333 L146.666667,13.3333333 Z" id="Shape" fill="#CB3837"></path>
            <polygon id="Shape" fill="#FFFFFF" points="13.3333333 66.6666667 40 66.6666667 40 26.6666667 53.3333333 26.6666667 53.3333333 66.6666667 66.6666667 66.6666667 66.6666667 13.3333333 13.3333333 13.3333333"></polygon>
            <path d="M80,13.3333333 L80,80 L106.666667,80 L106.666667,66.6666667 L133.333333,66.6666667 L133.333333,13.3333333 L80,13.3333333 Z M120,53.3333333 L106.666667,53.3333333 L106.666667,26.6666667 L120,26.6666667 L120,53.3333333 Z" id="Shape" fill="#FFFFFF"></path>
            <polygon id="Shape" fill="#FFFFFF" points="146.666667 13.3333333 146.666667 66.6666667 173.333333 66.6666667 173.333333 26.6666667 186.666667 26.6666667 186.666667 66.6666667 200 66.6666667 200 26.6666667 213.333333 26.6666667 213.333333 66.6666667 226.666667 66.6666667 226.666667 13.3333333"></polygon>
        </g>
    </g>
</svg>