<svg width="840" height="720" viewBox="0 0 840 720" xmlns="http://www.w3.org/2000/svg"><title>Group</title><g fill="none" fill-rule="evenodd"><text font-family="YandexSansDisplay-Light, Yandex Sans Display" font-size="144" font-weight="300" fill="#000" transform="translate(3 144)"><tspan x="101.617" y="137.345">1</tspan></text><text font-family="YandexSansDisplay-Light, Yandex Sans Display" font-size="144" font-weight="300" fill="#000" transform="translate(3 144)"><tspan x="263.249" y="137.345">.</tspan></text><text font-family="YandexSansDisplay-Light, Yandex Sans Display" font-size="144" font-weight="300" fill="#000" transform="translate(3 144)"><tspan x="370.845" y="137.345">4</tspan></text><path d="M8.655 397.096h245.237M7.982 358.908v37.318M256.096 358.919v37.319M298.535 397.096h245.237M297.947 358.919v37.319M544.068 358.919v37.319M586.422 397.096h245.237M585.918 358.919v37.319M832.04 358.919v37.319" stroke="#FE0000" stroke-width="10" stroke-linecap="square"/><text font-family="YandexSansDisplay-Light, Yandex Sans Display" font-size="144" font-weight="300" fill="#000" transform="translate(3 144)"><tspan x="664.063" y="137.345">3</tspan></text><text font-family="YandexSansDisplay-Light, Yandex Sans Display" font-size="102" font-weight="300" fill="#000" transform="translate(3 144)"><tspan x="6.87" y="350.892">major</tspan></text><text font-family="YandexSansDisplay-Light, Yandex Sans Display" font-size="102" font-weight="300" fill="#000" transform="translate(3 144)"><tspan x="291.799" y="350.892">minor</tspan></text><text font-family="YandexSansDisplay-Light, Yandex Sans Display" font-size="102" font-weight="300" fill="#000" transform="translate(3 144)"><tspan x="583.817" y="350.892">patch</tspan></text><text font-family="YandexSansDisplay-Light, Yandex Sans Display" font-size="144" font-weight="300" fill="#000" transform="translate(3 144)"><tspan x="550.963" y="137.345">.</tspan></text></g></svg>